<svg xmlns="http://www.w3.org/2000/svg" viewBox="0 0 64 64">
  <!-- feet -->
  <g stroke="#F57F17" stroke-width="2.5" stroke-linecap="round" fill="none">
    <path d="M24 53 L21 60 M24 53 L24 60 M24 53 L27 60"/>
    <path d="M40 53 L37 60 M40 53 L40 60 M40 53 L43 60"/>
  </g>
  <!-- hair tuft -->
  <g stroke="#F9A825" stroke-width="2.2" stroke-linecap="round" fill="none">
    <path d="M29 13 Q27 6 22 6"/>
    <path d="M32 12 Q32 4 36 3"/>
  </g>
  <!-- body -->
  <circle cx="32" cy="34" r="21" fill="#FFD54F"/>
  <ellipse cx="32" cy="45" rx="13" ry="8" fill="#FFE082"/>
  <!-- wings -->
  <ellipse cx="12" cy="37" rx="4.6" ry="7.6" fill="#FFC107" transform="rotate(14 12 37)"/>
  <ellipse cx="52" cy="37" rx="4.6" ry="7.6" fill="#FFC107" transform="rotate(-14 52 37)"/>
  <!-- beak -->
  <path d="M27.5 33 L32 38.5 L36.5 33 Q32 30 27.5 33 Z" fill="#FF8F00"/>
  <!-- eyes -->
  <circle cx="24" cy="29" r="2.6" fill="#4E342E"/>
  <circle cx="40" cy="29" r="2.6" fill="#4E342E"/>
  <circle cx="24.9" cy="28.1" r="0.9" fill="#FFFFFF"/>
  <circle cx="40.9" cy="28.1" r="0.9" fill="#FFFFFF"/>
  <!-- cheeks -->
  <ellipse cx="17.5" cy="36" rx="3.4" ry="2.1" fill="#FF8A80" opacity="0.7"/>
  <ellipse cx="46.5" cy="36" rx="3.4" ry="2.1" fill="#FF8A80" opacity="0.7"/>
</svg>
