<svg xmlns="http://www.w3.org/2000/svg" viewBox="0 0 64 64">
  <!-- spilled grains -->
  <g fill="#FFB300">
    <ellipse cx="9" cy="57" rx="2.6" ry="1.9"/>
    <ellipse cx="16" cy="60" rx="2.6" ry="1.9"/>
    <ellipse cx="55" cy="58" rx="2.6" ry="1.9"/>
  </g>
  <!-- sack -->
  <path d="M21 17 Q11 28 11 42 Q11 56 32 56 Q53 56 53 42 Q53 28 43 17 Z" fill="#DDAC72" stroke="#C89258" stroke-width="2"/>
  <!-- tie -->
  <path d="M21 17 Q32 22 43 17 L45 11 Q32 16 19 11 Z" fill="#C89258"/>
  <path d="M24 10 Q32 13 40 10 L41 5 Q32 8 23 5 Z" fill="#DDAC72" stroke="#C89258" stroke-width="1.5"/>
  <!-- grains at opening -->
  <g fill="#FFC845">
    <ellipse cx="27" cy="8" rx="2.2" ry="1.6"/>
    <ellipse cx="33" cy="7" rx="2.2" ry="1.6"/>
    <ellipse cx="38" cy="9" rx="2.2" ry="1.6"/>
  </g>
  <!-- happy eyes -->
  <g stroke="#7A5230" stroke-width="2.2" stroke-linecap="round" fill="none">
    <path d="M23 35 Q26 31.5 29 35"/>
    <path d="M35 35 Q38 31.5 41 35"/>
  </g>
  <!-- mouth -->
  <path d="M29 41 Q32 44 35 41" stroke="#7A5230" stroke-width="2" stroke-linecap="round" fill="none"/>
  <!-- cheeks -->
  <ellipse cx="19" cy="41" rx="3.2" ry="2" fill="#F48FB1" opacity="0.6"/>
  <ellipse cx="45" cy="41" rx="3.2" ry="2" fill="#F48FB1" opacity="0.6"/>
</svg>
