<svg xmlns="http://www.w3.org/2000/svg" viewBox="0 0 64 64">
  <!-- heart -->
  <path d="M32 56 C14 44 6 33 6 22.5 C6 14 12.5 8 20.5 8 C25.5 8 30 10.8 32 14.8 C34 10.8 38.5 8 43.5 8 C51.5 8 58 14 58 22.5 C58 33 50 44 32 56 Z"
        fill="#F9739B" stroke="#EF5380" stroke-width="2.5" stroke-linejoin="round"/>
  <!-- highlight -->
  <path d="M14 20 Q15 14.5 20 13" stroke="#FFC1D4" stroke-width="4" stroke-linecap="round" fill="none"/>
  <!-- happy eyes -->
  <g stroke="#8E2447" stroke-width="2.4" stroke-linecap="round" fill="none">
    <path d="M22 27 Q25 23.5 28 27"/>
    <path d="M36 27 Q39 23.5 42 27"/>
  </g>
  <!-- mouth -->
  <path d="M28.5 33 Q32 36.5 35.5 33" stroke="#8E2447" stroke-width="2.2" stroke-linecap="round" fill="none"/>
  <!-- cheeks -->
  <ellipse cx="19.5" cy="32.5" rx="3.1" ry="2" fill="#FFB3C8"/>
  <ellipse cx="44.5" cy="32.5" rx="3.1" ry="2" fill="#FFB3C8"/>
  <!-- sparkle -->
  <path d="M50 4 L51.2 7 L54 8.2 L51.2 9.4 L50 12.4 L48.8 9.4 L46 8.2 L48.8 7 Z" fill="#FFD180"/>
</svg>
