<svg xmlns="http://www.w3.org/2000/svg" viewBox="0 0 64 64">
  <!-- comb -->
  <path d="M23 15 Q21 6 28 6 Q28 10 31 11 Q31 4 37 4 Q36 9 39 10 Q42 6 46 9 Q43 11 43 15 Z" fill="#EF5350"/>
  <!-- body -->
  <circle cx="32" cy="36" r="21" fill="#FAFAFA" stroke="#E8E8E8" stroke-width="2"/>
  <ellipse cx="32" cy="47" rx="13" ry="7.5" fill="#F2F2F2"/>
  <!-- wings -->
  <ellipse cx="12" cy="39" rx="4.4" ry="7.4" fill="#EEEEEE" stroke="#E0E0E0" stroke-width="1.5" transform="rotate(14 12 39)"/>
  <ellipse cx="52" cy="39" rx="4.4" ry="7.4" fill="#EEEEEE" stroke="#E0E0E0" stroke-width="1.5" transform="rotate(-14 52 39)"/>
  <!-- beak -->
  <path d="M27.5 34 L32 39.5 L36.5 34 Q32 31 27.5 34 Z" fill="#FF8F00"/>
  <!-- wattle -->
  <path d="M29.5 39.5 Q32 45 34.5 39.5 Z" fill="#EF5350"/>
  <!-- eyes -->
  <circle cx="24" cy="30" r="2.6" fill="#4E342E"/>
  <circle cx="40" cy="30" r="2.6" fill="#4E342E"/>
  <circle cx="24.9" cy="29.1" r="0.9" fill="#FFFFFF"/>
  <circle cx="40.9" cy="29.1" r="0.9" fill="#FFFFFF"/>
  <!-- cheeks -->
  <ellipse cx="17.5" cy="37" rx="3.4" ry="2.1" fill="#FFAB91" opacity="0.7"/>
  <ellipse cx="46.5" cy="37" rx="3.4" ry="2.1" fill="#FFAB91" opacity="0.7"/>
</svg>
