<svg xmlns="http://www.w3.org/2000/svg" viewBox="0 0 64 64">
  <!-- rays -->
  <g stroke="#FFB300" stroke-width="3" stroke-linecap="round">
    <path d="M32 2 L32 7"/>
    <path d="M12 8 L15.5 11.5"/>
    <path d="M52 8 L48.5 11.5"/>
    <path d="M6 26 L11 26"/>
    <path d="M58 26 L53 26"/>
  </g>
  <!-- bulb -->
  <circle cx="32" cy="27" r="16.5" fill="#FFF176" stroke="#FFD54F" stroke-width="2.5"/>
  <!-- happy eyes -->
  <g stroke="#B8860B" stroke-width="2.2" stroke-linecap="round" fill="none">
    <path d="M23 25 Q26 21.5 29 25"/>
    <path d="M35 25 Q38 21.5 41 25"/>
  </g>
  <!-- mouth -->
  <path d="M28.5 31 Q32 34.5 35.5 31" stroke="#B8860B" stroke-width="2" stroke-linecap="round" fill="none"/>
  <!-- cheeks -->
  <ellipse cx="21" cy="31" rx="3" ry="1.9" fill="#FFAB91" opacity="0.8"/>
  <ellipse cx="43" cy="31" rx="3" ry="1.9" fill="#FFAB91" opacity="0.8"/>
  <!-- base -->
  <path d="M25 43 Q25 41 27 41 L37 41 Q39 41 39 43 Z" fill="#FFD54F"/>
  <rect x="25" y="44" width="14" height="4" rx="2" fill="#B0BEC5"/>
  <rect x="26" y="49" width="12" height="4" rx="2" fill="#B0BEC5"/>
  <rect x="27.5" y="54" width="9" height="4" rx="2" fill="#90A4AE"/>
</svg>
