<svg xmlns="http://www.w3.org/2000/svg" viewBox="0 0 64 64">
  <!-- back page -->
  <path d="M14 12 Q14 8 18 8 L50 8 Q54 8 54 12 L54 50 Q54 56 48 56 L20 56 Q14 56 14 50 Z" fill="#90CAF9" stroke="#64B5F6" stroke-width="2"/>
  <!-- front page -->
  <path d="M10 18 Q10 14 14 14 L46 14 Q50 14 50 18 L50 50 Q50 56 44 56 L16 56 Q10 56 10 50 Z" fill="#E3F2FD" stroke="#90CAF9" stroke-width="2"/>
  <!-- headline photo block -->
  <rect x="16" y="20" width="13" height="11" rx="3" fill="#FFCC80"/>
  <circle cx="20" cy="24" r="1.8" fill="#FFF3E0"/>
  <path d="M16.5 29 L21 25.5 L24 28 L28.5 24.5 L28.5 31 L16.5 31 Z" fill="#FFB74D"/>
  <!-- headline lines -->
  <g stroke="#64B5F6" stroke-width="2.6" stroke-linecap="round">
    <path d="M33 22 L44 22"/>
    <path d="M33 27 L44 27"/>
  </g>
  <!-- body lines -->
  <g stroke="#B3D7F5" stroke-width="2.6" stroke-linecap="round">
    <path d="M16 37 L44 37"/>
    <path d="M16 43 L44 43"/>
    <path d="M16 49 L36 49"/>
  </g>
</svg>
