<svg xmlns="http://www.w3.org/2000/svg" viewBox="0 0 64 64">
  <!-- star -->
  <path d="M32 4 L39.5 21.5 L58 23.5 L44 36.5 L48 55 L32 45.5 L16 55 L20 36.5 L6 23.5 L24.5 21.5 Z"
        fill="#FFCA28" stroke="#F5A623" stroke-width="2.5" stroke-linejoin="round"/>
  <!-- happy eyes -->
  <g stroke="#9C6B1F" stroke-width="2.2" stroke-linecap="round" fill="none">
    <path d="M24 30 Q27 26.5 30 30"/>
    <path d="M34 30 Q37 26.5 40 30"/>
  </g>
  <!-- mouth -->
  <path d="M29 35.5 Q32 38.5 35 35.5" stroke="#9C6B1F" stroke-width="2" stroke-linecap="round" fill="none"/>
  <!-- cheeks -->
  <ellipse cx="21.5" cy="35" rx="2.9" ry="1.8" fill="#FF8A65" opacity="0.7"/>
  <ellipse cx="42.5" cy="35" rx="2.9" ry="1.8" fill="#FF8A65" opacity="0.7"/>
  <!-- sparkle -->
  <path d="M52 8 L53.2 11 L56 12.2 L53.2 13.4 L52 16.4 L50.8 13.4 L48 12.2 L50.8 11 Z" fill="#FFF59D"/>
</svg>
